<svg width="58" height="58" viewBox="0 0 58 58" fill="none" xmlns="http://www.w3.org/2000/svg">
<g clip-path="url(#clip0_3238_992)">
<path d="M41.0836 4.83301H16.9169C10.2435 4.83301 4.83361 10.2429 4.83361 16.9163V41.083C4.83361 47.7564 10.2435 53.1663 16.9169 53.1663H41.0836C47.757 53.1663 53.1669 47.7564 53.1669 41.083V16.9163C53.1669 10.2429 47.757 4.83301 41.0836 4.83301Z" stroke="#111111" stroke-linecap="round" stroke-linejoin="round"/>
<path d="M38.6671 27.4782C38.9653 29.4895 38.6218 31.5436 37.6853 33.3483C36.7489 35.1531 35.2672 36.6166 33.451 37.5308C31.6348 38.4449 29.5767 38.7631 27.5692 38.4401C25.5618 38.117 23.7073 37.1693 22.2696 35.7315C20.8319 34.2938 19.8841 32.4393 19.5611 30.4319C19.2381 28.4245 19.5562 26.3663 20.4704 24.5501C21.3845 22.734 22.848 21.2523 24.6528 20.3158C26.4576 19.3794 28.5117 19.0358 30.5229 19.3341C32.5745 19.6383 34.4738 20.5943 35.9403 22.0608C37.4069 23.5273 38.3629 25.4267 38.6671 27.4782Z" stroke="#111111" stroke-linecap="round" stroke-linejoin="round"/>
</g>
<defs>
<clipPath id="clip0_3238_992">
<rect width="58" height="58" fill="white"/>
</clipPath>
</defs>
</svg>
